<svg xmlns="http://www.w3.org/2000/svg" width="400" height="400" className="relative z-10" viewBox="0 0 400 400">
   <path fill="#b2c2f8"
      d="M77.948 217.634c-.122-.2-11-19.784-18.686-32.968A1.854 1.854 0 0056.9 183.6c-14.29 2.664-26.586 4.9-45.102 8.484 5.736 13.622 1 3.484 15.464 34.578.214.538.428.966 1.18.752 5.478-1.074 10.956-1.916 16.43-3 9.026-1.814 31.034-6.244 33.076-6.78z">
   </path>
   <path fill="black"
      d="M151.72 134.626c-.428 0-1.076-.752-1.18-1.29-.666-3.432-12.582-68.292-12.886-69.37-.456-1.6.212-2.6 1.932-2.8 6-.698 92.35-10 97.292-10.524 1.072-.112 1.734.102 2.04 1.288.91 3.532 15.448 64.65 16.644 69.908a2.154 2.154 0 01-2.04 2.684c-4.296.33-100.298 10.21-101.802 10.104zM79.772 235.674c-.476-3.328-1.674-5.852 1.29-6.764 2.274-.702 2.254-.646 2.254-4.51a17.38 17.38 0 013.758-11.706A23.18 23.18 0 01102 203.03c4.896-1.032 6.132-1.68 19.222-.108 4.6.552 17.332 3.128 23.2 3.222 7.22.116 13.578-2.424 11.378-9.344-3.012-9.526-11.858-13.532-21.37-19.544-4.774-3.018-8.716-5.724-5.262-10.846a16.566 16.566 0 016.336-5.262c7.012-3.676 6.712-3.222 10.2-3.76 0-.214 0-.644.214-.75 1.4-1.074.95-2.36.644-3.652a20.614 20.614 0 01.322-8.698 3.812 3.812 0 013.544-2.8c4.626-.36 105.572-10.944 109.86-11.488a10.526 10.526 0 018.912 2.684c9.644 8.49 27.89 22.67 37.37 30.498a4.826 4.826 0 011.934 5.692c-.454 1.326-.856 5.886-6.552 6.55-17.29 2.016-88.144 9.096-112 11.92-12.55 1.484-25.69-7.138-33.826-16.646a50.278 50.278 0 01-6.874-9.556c-.214-.644-1.62-.548-1.932-.86-.752-1.182-1.718-.752-2.684-.43a26.574 26.574 0 00-13.426 7.948c-3.972 4.838 4.222 7.018 15.034 14.282 5.92 3.976 12.378 11.102 12.242 17.932a8.538 8.538 0 01-4.832 7.2c-11.354 5.02-31.254-3.258-45.102-2.362-8.6.554-15.738 3.892-20.188 11.6a18.078 18.078 0 00-2.578 10.2c0 .86.214 1.504 1.288 1.718 2.042.216 2.384 1.928 2.8 3.544.568 2.248.542 2.2 2.8 1.934 31.704-3.704 19-2.768 29.316-3.76a7.874 7.874 0 017.2 4.4c4.744 10.362 21.986 44.518 22.444 50.148a4.874 4.874 0 01-3.76 5.584 64.274 64.274 0 01-12.564 3.866c-.236.056-42.066 8.822-48.538 9.45-1.936.188-8.698.538-11.49-.966-6.672-2.086-11.674-13.956-14.496-20.4-12.36-28.226-12.16-29-12.672-34.684a5.31 5.31 0 014.188-5.8c6.54-1.652 13.092-3.044 19.652-4.51 4.194-.94 7.428-1.11 7.818-1.502zm-25.88 20.082a1.308 1.308 0 00-.966 1.826c3.346 7.556 17.934 38.014 18.578 38.872.8.8 75.172-13.914 75.384-13.96a1.536 1.536 0 001.074-2.146c-3.544-7.36-16.538-35.116-17.6-37.264a1.26 1.26 0 00-1.182-.536c-8.38 1.396-64.12 11.168-75.288 13.208zm98.258-94.822a48.816 48.816 0 008.376 11.384c10.328 9.8 22.028 13.28 25.772 13 3.434-.262 106.854-11.45 114.366-12.348a5.376 5.376 0 005.048-4.51 3.67 3.67 0 00-1.074-3.652c-12.512-10.35-25.052-20.904-37.478-31.356a5.55 5.55 0 00-4.724-1.504c-7.498 1.106-100.508 11.012-111.144 12.136-3.666.386-2.712 1.37-1.826 10.308.096.968.644 1.288 1.6 1.288a5.068 5.068 0 012.9.86 7.432 7.432 0 011.718 3c.43.86 0 1.4-.966 1.4a10.288 10.288 0 01-2.568-.006zM292.4 86.516c-.966-3.222-1.826-6.336-2.9-9.342A48.8 48.8 0 01290.466 63c1.6-.8 3.716 3.778 6.552 6.764 2.248 2.368 2.576 5.37 3.436 8.162.43 1.4.858 2.684 1.288 4.08a.4.4 0 00.322-.108c-.214-1.4-1.074-15.248-1.074-20.4 0-3.2 2.418-6.506 5.478-5.048 2.934 1.4 3.18 4.334 3.65 7.624 2.256-.214 2.538 0 3 2.256a18.336 18.336 0 010 7.088c-.222.884-.51 1.248-1.074.966-.216-2.8-.86-8.484-.968-8.484a16.896 16.896 0 00-.428 2.256q.484 7.57 1.288 15.14c0 .3.292 1.842 1.182 1.4a216.542 216.542 0 015.482-23.844c.54-2.102 2.04-4.07 4.188-3.33a3.458 3.458 0 011.504 3.544c0 .214-.108.322-.108.538a2.658 2.658 0 011.718 2.684c.054 2.472.054 4.83 0 7.302a1.084 1.084 0 01-2.148.108 15.908 15.908 0 00-.322-2.364c-5.642 28.212-1.62 14.522 5.154.322a15.104 15.104 0 012.148-2.898 23.958 23.958 0 012.8-3.436 1.98 1.98 0 011.504-.968c.966 0 1.088.644 1.18 1.612.258 2.68.646 5.262.968 7.946.178.896-.126 1.282-6.014 14.282-.436.964 0 1.488.752 1.934.87.52 1.826 1.074 2.684 1.502a3.344 3.344 0 011.718 3.76c-.844 5.388-7.922 44.442-8.698 49.288-1.894 11.814-19.156 9.584-30.82 7.088-5.858-1.252-5.446-4.8-6.872-10.952-.772-3.326-9.58-40.83-11.06-46.176-1.378-4.936 8.47-6.394 13.524-6.122zM333 94.57c-17.182 3.652-34.15 3.974-50.902-1.932 4.652 23.254 6.84 29.586 12.458 51 .696 2.658 2.38 2.318 3.328 2.8 12.938 1.4 17.97 3 23.732.322a4.8 4.8 0 003.114-3.758c7.886-42.202 5.47-32.242 8.258-48.432zm-41.13-17.934A71.22 71.22 0 00296.154 92a1.584 1.584 0 00.538.644c1.932.322 3.864.536 5.906.752-.324-1.298-5.306-17.2-5.37-17.4-.966-2.474-5.798.104-5.37.64zm40.27-3.114c-.536.108-1.076.55-1.61.43-.432-.096-.752-.752-1.182-1.288-2.9 6.764-6.442 13.2-9.02 20.296 1.932-.216 3.544-.43 5.154-.644.782 0 .878-.472 7.624-16.216.356-.734-.38-1.58-.978-2.578zm-15.57-1.502c-1.504 7.4-2.8 14.282-4.296 21.476 1.504-.106 2.47-.214 3.544-.214 1.78 0 .768.046 5.368-20.082-1.622-.428-3.126-.752-4.628-1.18zm-6.444 21.476c-.678-9.484-1.144-13.878-1.4-18.256-.136-2.36-.43-2.8-2.9-2.576a18.258 18.258 0 00-1.932.536c.644 6.766 1.288 13.532 1.826 20.296zm-1.932-23.4c-.43-3.328-.84-6.876-1.504-10.308-.416-2.15-2.578-1.074-2.9-.538a3.422 3.422 0 00-.644 2.04c.172 7.212.644 7.892.644 9.772 1.492-.332 2.78-.662 4.392-.976zm-13.21 1.826c-2.04-3.114-2.04-3.114-3.436-2.684-.644 4.832-1.074 4.08.322 4.08a6.922 6.922 0 003.102-1.406zm36.512-1.074c1.504-.858 1.504-.858 3 1.288h.322q-.158-2.094-.322-4.188a15.472 15.472 0 00-1.718-.536c-2.046 2.244-2.046 2.244-1.294 3.426zM22.75 339.302a11.116 11.116 0 01-3.114 0 1.2 1.2 0 01-.858-.752c-.108-.214.322-.644.536-.966a3.636 3.636 0 012.9-1.074c18.832-3.532 324.688-59.4 358.774-66.042 3.156-.616 5.076 2.444 2.578 3-2.218.506-360.616 65.798-360.816 65.834zM387.968 282.388a1.644 1.644 0 012.04.752c-.214 1.18-1.18 1.4-2.146 1.718-121.8 29.178-351.2 71.304-362.212 71.304 0-4.594 72.606-10.362 362.318-73.774zM75.906 169.418c-3 2.578-11.48 1.272-14.496-.644a14.142 14.142 0 01-6.55-12.35c-.31-10.38 8.502-13.824 14.066-9.128.43.322.86.752 1.182 0a11.052 11.052 0 018.8-5.906c10.82-1.868 16.308-2.99 32.538.108 4.84.924 7.4 5.046 6.98 10.308a37.132 37.132 0 01-8.6 20.618 10.788 10.788 0 01-7.072 3.976 64.058 64.058 0 01-14.928.536c-6.1-.508-9.882-5.772-11.92-7.518zm-4.294-19.114a22.46 22.46 0 001.932 11.274 32.706 32.706 0 008.914 11.062 7.848 7.848 0 004.942 2.04 66.356 66.356 0 0017.504-.966 3.164 3.164 0 001.504-.968c5.76-5.942 10.422-15.012 10.094-23.516-.186-4.816-5.218-6.278-9.986-6.98-10.632-1.568-33.868-2.622-34.904 8.054zm17.718-7.626c17.518-1.8 28.746 3.648 24.162 5.692-8.168 3.642-21.8 5.742-37.37 1.718-1.614-.416-4.304-2.6-.752-4.618 2.464-1.404 10.952-2.484 13.96-2.792zm-20.188 8.484a2.764 2.764 0 00-.322-1.932 6.126 6.126 0 00-10.524 1.826 12.4 12.4 0 007.732 16.744 13.748 13.748 0 008.912.428c-.536-.752-1.074-1.4-1.504-2.04-6.262 2.228-18.364-9.428-10.522-14.926a5.084 5.084 0 016.228-.1zm3.758 14.282a23.266 23.266 0 01-3.544-11.704 3.094 3.094 0 00-4.618-1.4c-5.938 3.296 1.432 13.104 8.162 13.104zm15.248-19.328c-3-1.504-8.376-.968-10.094 1.718 3.436-.634 6.546-1.182 10.094-1.718z">
   </path>
   <path fill="black"
      d="M144.956 139.78c.43 4.51-1.918.642-2.04-.108-.67-4.094-13.348-70.226-13.854-73.774a11.258 11.258 0 015.048-11.92 10.2 10.2 0 013.65-1.074c2.786-.466 92.784-8.87 96.648-9.02 12.052-.468 10.934 1.132 28.456 82.902 0 2.256-1.694 1.498-1.932.536-.294-1.188-.78-2.354-1.074-3.542-15.572-62.96-15.368-71.012-16.752-73.56a6.6 6.6 0 00-6.55-3.974c-3.222.22-99.126 9-100.728 9.988-3.748 2.294-3.8 5.572-4.296 8.59.108.108 12.35 68.728 13.424 74.956zM68.282 221.714c-2.46.482-11.6 2.452-13.744 2.9-3.342.698-11.452 1.89-25.344 4.94a4.182 4.182 0 01-5.262-3C9.308 191.818 9.8 192.852 10.08 190.894c0-.664-.57-.362 38.98-7.946 2.8-.534 5.59-1.048 8.376-1.718 1.292-.31 1.934.43 2.47 1.4 13.32 23.976 7.868 15.2 17.826 31.356.86 1.4 1.522 2.78 2.362 4.082.55.85.106 1.494-.75 1.718-.744.19-7.944 1.318-11.062 1.928zm9.666-4.08c-.122-.2-11-19.784-18.686-32.968A1.854 1.854 0 0056.9 183.6c-14.29 2.664-26.586 4.9-45.102 8.484 5.736 13.622 1 3.484 15.464 34.578.214.538.428.966 1.18.752 5.478-1.074 10.956-1.916 16.43-3 9.026-1.814 31.034-6.244 33.076-6.78zM16.416 130c-2.31.462-3.412-2.638-1.074-3.222 3-.36 114.428-10.12 118.016-10.416 1.502-.124 2.04.106 2.148 1.18s-.216 1.612-1.4 1.612C130.084 119.162 17.05 130 16.416 130zM351.028 186.384c-6.114-1.666-2.686-.014-18.47-5.906a49.538 49.538 0 01-11.6-6.872 7.028 7.028 0 00-2.47-1.074 3.6 3.6 0 01-2.148-6.014 22.184 22.184 0 019.344-6.55c6.25-2.634 12.456-1.716 18.576.43 9.138 3.2 20.442 6.528 23.2 15.464a8.042 8.042 0 01-3.436 8.8c-7.612 4.194-9.652 2.634-12.996 1.722zm-27.276-12.348a75.37 75.37 0 0021.8 9.234c-1.254-1.252 1.412.332-21.048-9.45-.876-.582-1.278-.048-.752.216zm6.872-13.96c-4.314 1-10.4 3.688-12.886 7.302-1.1 1.6-.648 2.7 1.29 3.222a108.106 108.106 0 0128.456 11.918c4.928 2.486 8.822 4.588 15.25-.75 3-2.488 3.116-4.62 1.072-7.948a15.528 15.528 0 00-7.086-6.334c-5.044-2.156-10.2-4.082-15.464-5.908a28.97 28.97 0 00-10.632-1.502zM313.336 212.91c.214-4.082 3.316-5.672 6.872-3.652.2.118 27.638 15.242 49.076 27.6a42.926 42.926 0 015.046 6.766c.494.748.252 1.6-.966 1.6-9.52-1.058-1.074 2.296-57.236-29.2-.966-.86-2.362-1.718-2.792-3.114zm54.552 25.02L327.4 214.95a2.914 2.914 0 00-4.4.752c-.88 1.056-.854 1.6.322 2.254 18.524 10.262 41.614 23.732 42.096 23.732.752-1.18 1.504-2.47 2.47-3.758zm3.436 3.65l-1.61-2.576c-2.042.858-2.9 1.932-2.8 3.65 1.51-.214 3.228.86 4.41-1.074zm-55.2-27.704c.858-1.29 1.61-2.47 2.47-3.76a2.16 2.16 0 00-3 .968c-.754 1.288-.432 2.362.534 2.792zm4.08 2.576c1.074-1.4 2.04-2.47 3-3.65a3.2 3.2 0 00-3.33 2.47c.012.328.326.858.326 1.18zm-2.148-1.074c.968-1.6 1.718-2.8 2.364-4.08-1.612.322-2.686 1.182-2.8 2.578a4.6 4.6 0 00.44 1.502zM114.458 171.028c6.524 1.136 4.666 14.702-18.148 16.108-8.854.546-28.272-2.928-24.914-9.878a4.454 4.454 0 013.866-3 1.694 1.694 0 01-.752.752 3.28 3.28 0 00.216 5.906c9.668 5.876 29.538 6.512 39.518-1.6a4.978 4.978 0 00.858-7.2c-.322-.228-.43-.658-.644-1.088zM339.538 99.618c-1.56 0-1.858-1.32-.752-2.148 1.822-1.964 25.142-3.436 25.344-3.436a2.046 2.046 0 01.322 4.08 217.77 217.77 0 01-24.914 1.504zM268.126 103.268c8.4-.958 9.788-1.102 10.954-.43a1.218 1.218 0 01-.108 2.256 24.258 24.258 0 01-4.618 1.182c-3.754.464-7.624.752-11.49.966-1.61.214-4.518-2.858 5.262-3.974zM300.556 201.526c-.75-.966-1.6-2.148-3.22-1.504-.322.108-3.576.342-4.4-1.074-1.546-2.64-7.458-4.2-9.772-4.4-21.952-2.352-31.866 2.124-42.738 8.268-2.094.898-.574.442-7.304-1.932-12.976-4.866-34.912-3.776-55.84 9.558a21.868 21.868 0 00-6.764 6.55c-1.356 2.03-2.382 1.678-5.37 3a2 2 0 00-1.182 3.114c1.718 2.9 32.86 55.09 35.652 59.922.86 1.504 1.504 1.826 3.114 1.504 5.908-1.29 55.67-10.952 66.688-13.316a16.446 16.446 0 015.368-.538 14.692 14.692 0 0010.524-2.8 5.634 5.634 0 012.9-1.074c5.046-.644 43.706-6.336 47.678-6.872 11.788-1.23 15.852 7.996-35.334-58.406zm-95.142 77.962c-.8-.8-34.552-56.5-34.686-56.7.938-.938-2-4.9 34.148 54.768 1.154 1.922 1.164 1.306.538 1.932zm16.966-5.37a115.376 115.376 0 0141.988-9.772zm4.296-3.866c9.342-4.724 19.114-7.73 29.102-7.302a136.146 136.146 0 00-29.102 7.302zm-18.578 8.162q-18.364-29.96-36.726-59.814c18.324-15.6 42.788-21.538 63.466-14.174a11.6 11.6 0 016.12 4.94c17.692 27.116 33.388 50.418 35.544 54.014-25.664-7.946-48-.966-68.404 15.034zm70.982-15.464c-12.564-18.9-25.236-38.014-38.014-57.128 12.038-9.964 37.334-11.086 49.934-6.444.954.24 40.284 51.568 41.128 52.834a56.188 56.188 0 00-27.384.966 99.636 99.636 0 00-25.664 9.772zm44.886-9.234c-7.4 1.074-15.248 2.04-22.98 3.114 10.31-2.792 19.974-3.974 22.98-3.114zm-33.288 7.946a.644.644 0 01-.108-.43c2.47-.644 5.048-1.4 7.732-1.826 5.412-.822 26.764-4.042 32.322-4.294a7.966 7.966 0 012.148.322c-14.172 2.148-28.134 4.188-42.094 6.228z">
   </path>
   <path fill="#b2c2f8" d="M316.128 213.876c-2.2-.98-.354-5.118 2.362-3.76-.752 1.284-1.61 2.47-2.362 3.76z"></path>
   <path fill="#1D2CCE"
      d="M127.13 282.71c-.216 1.18-.862 1.74-1.934 1.61-5.062-.614 1.556 2.3-20.08-10.524-5.642-3.344-28.78-15.814-28.78-20.08.526-.526 6.572.4 7.518.966 47.86 28.908 39.84 23.734 43.276 28.028zm-22.444-10.954c.542.542 10.526 6.486 17.718 10.738.746.442 1.074.108 1.504-.428.43-.646 0-.964-.536-1.29-2.02-1.226-14.07-8.6-17.934-10.846a16.09 16.09 0 01-.752 1.826z">
   </path>
   <path fill="#b2c2f8"
      d="M262.542 136.022c1.964.302.6-.472 30.176 25.02 1.116.744.298 1.504-.43 1.504-4.08.428-101.264 11.498-105.666 12.134a3.76 3.76 0 01-3.652-1.504c-21-25.466-21.672-25.4-21.37-26.31.846-1.692 100.706-10.882 100.942-10.844zm-81.182 18.47c-1.29.214-2.256.428-3.33.536-.966.216-.108.538.538.538 3.822-1.062 5.458 1.454 9.878 6.98-1.502.214-2.684.322-3.866.536-1.074.43-.106.322 0 .43a14.2 14.2 0 003.114 0 2.8 2.8 0 012.9 1.074 41.072 41.072 0 003.222 2.898c.322.216.644.43.322-.322-1.074-1.18-2.04-2.362-3.222-3.542a.2.2 0 01.108-.324c1.718-.214 9.02-1.18 12.778-1.502a2.26 2.26 0 011.4.752c2.766 2.766 6.504 7.1 5.37 4.832-1.504-1.826-3-3.758-4.618-5.584.43-.216 3.442-.494 11.706-1.4 3.76-.4 4.964-.882 6.12.43 1.2 1.372 2.47 2.684 3.652 4.08.536.858.966.43.322-.322-1.074-1.612-2.256-3.114-3.436-4.832 4.616-.538 9.128-1.074 13.744-1.612 1.6 0 3.464 3.526 5.584 4.94l.322-.322c-1.18-1.504-2.254-3-3.436-4.51-.302-.6-.38-.224 12.564-1.934 1.506-.2 2.47-.428 3.544 1.074 1.934 3.438 2.8 3.974 2.04 2.042-.322-.538-1.074-2.042-1.502-2.9a.362.362 0 01.322-.538c1.718-.214 6.016-1.054 9.878-1.502 3.546-.412 4.628-1.082 5.906.322.974 1.068 2.042 2.04 3.116 3.114.75.858 1.072.644.428-.322l-3-3.652a.3.3 0 01.214-.536l3.652-.966c.858-.216.43-.43-.108-.43-5.022.456-4.622 1.364-7.302-1.826-1.176-1.4-5.37-4.94-6.014-5.584a9.812 9.812 0 011.074-.538c.752-.214.752-.536-.322-.322a3.462 3.462 0 01-1.826-.106c-.214-.108-1.824-2.04-2.362-2.686-.644-.536-.644-.214-.322.216l1.4 2.254a.362.362 0 01-.322.538c-4.51.536-8.914 1.074-13.316 1.502-1.434 0-2-.97-3.544-2.254-.43-.752-.752-.43-.214.214.536.752.966 1.504 1.504 2.256.214.43.106.536-.108.536-2.04.43-6.122.528-8.6.86-6.23.836-6.566.98-9.02-1.934a14.288 14.288 0 00-1.826-1.718c-.322-.428-.536-.106-.322.322.968 1.182 2.148 2.686 3.222 3.974a.2.2 0 01-.108.322c-1.61.108-8.266.434-11.168.966-2.36.434-2.8.322-4.616-1.824a13.92 13.92 0 00-1.612-1.934c-.752-.966-.536-.214-.322.322.752 1.074 1.504 2.256 2.256 3.436a.4.4 0 01-.216.538c-4.94.752-9.75 1.52-14.6 2.254-1.774.27-1.158-.4-3.974-3.22l-.322.322c.646 1.074 1.4 2.04 2.256 3.22-4.188.752-8.27 1.282-12.35 2.148a2.628 2.628 0 01-3.114-1.4c-2.684-3.328-3.114-3.114-2.684-2.576a24.84 24.84 0 002.568 4.196z">
   </path>
   <path fill="black"
      d="M182.648 181.338c-.2-.2-1.912-1.51.214-2.04 4.4-.538 114.366-13.102 119.09-13.638.926 0 1.572 1.138.108 1.502-11.318 1.462-117.138 13.72-119.412 14.176zM151.076 146.438c29.382 33 30.076 32.07 28.78 33.182-.752.644-1.282-.114-1.718-.644-5.614-6.84-28.672-31.676-28.672-32.11 0-.322-.008-2.248 1.61-.428zM197.466 220.748c-1.244.638-2.444 1.354-2.8.43-.428-1.714 8.632-5.656 9.558-6.014a62.326 62.326 0 0126.524-4.188 31.2 31.2 0 014.618.86c4.634 2.31-17.494-1.544-37.9 8.912zM236.234 219.03c2.576 1.074.106 1.4-.324 1.4a62.376 62.376 0 00-15.462 2.04c-.322.108-2.9-.214-.43-1.4 9.582-3.07 11.698-3.082 16.216-2.04zM280.154 241.474c-1.288-2.04-2.578-3.974-3.866-5.906a1.626 1.626 0 00-1.288-.216c-1.082.298-2.256.644-3.438.86.646-1.504 2.148-1.826 3.438-2.686-.968-1.61-1.826-3.22-2.8-4.938-3.872 1.4-3.64 1.328-4.726.966.652-.978-.494-.6 3.974-2.47-1.29-2.256-2.47-4.4-3.76-6.658-.858.322-1.718.644-2.684.966 0-1.502 1.288-1.6 1.934-2.254a332.129 332.129 0 01-2.9-6.23c.108-.106.052-1.756 1.718.538 2.8 3.852 3.056 4.94 3.866 4.94 3.544-.752 6.98-1.612 10.524-2.47-3.652-6.658-4.188-8.914 1.288-1.074a1.506 1.506 0 001.826.966c2.574-.25 5.154-.322 7.946-.43a10.322 10.322 0 01-.858-2.04c-2.8-8.698 1.502-.644 1.502-.536 1.976 5.928 6.762.928 8.8 4.724a484.515 484.515 0 00-5.692-.322c1.182 1.826 2.148 3.436 3.222 5.048.252.502 5.516.038 7.088 1.6-1.826.966-3.652 0-5.692.644.86 1.4 1.718 2.8 2.686 4.188.106.216.644.216 1.072.216 1.612.106 3.116.106 4.726.214a6.016 6.016 0 011.288.43c0 .78.636.164-5.8 1.18.966 1.612 1.826 3.222 2.9 4.726.558.56 2.4.172 6.764.43.422 0 2.4.704 1.826 1.288-2.362.214-4.726.43-7.2.644a15.046 15.046 0 00.75 2.362c2.8 7.732 2.686 8.054-1.4.968-.8-1.07-1.5-2.9-2.576-2.9-2.8.43-5.478.86-8.376 1.288.752 1.826 2.148 5.478 2.576 6.874.968 2.576-.644.214-.75.106-2.724-3.856-3.518-6.228-4.726-6.228-3.222.644-6.336 1.4-9.558 2.04.968 1.718 1.826 3.33 2.686 4.94.752 1.182-.108.966-.538.322-.644-.752-1.4-1.4-2.04-2.148-.748-.862-1.4-2.254-2.254-2.47-1.134-.376-2.366.694-6.014 1.504.67-1.6 2.71-1.922 4.536-2.996zm-6.766-15.142c3.436-.858 6.766-1.826 10.094-2.684-.858-1.934-1.824-3.758-2.8-5.906-3.544.644-7.2 1.4-11.06 2.148 1.404 2.254 2.578 4.402 3.766 6.442zm4.51 8.054c1.4 2.148 2.686 4.188 3.974 6.122a.664.664 0 00.752.214c3.114-.86 6.336-1.718 9.556-2.684-1.072-1.826-2.146-3.544-3.22-5.262a.72.72 0 00-.752-.322c-3.33.644-6.658 1.288-10.31 1.932zm9.666-3.758c-.86-1.504-1.826-3-2.686-4.51-.384-.77-1.93.086-10.63 1.718.966 1.718 1.718 3 2.576 4.4.216.216.646.538.968.43 3.22-.642 6.442-1.286 9.772-2.038zm3.328 1.288c2.746 4.494 3.31 5.8 3.974 5.8 2.8-.43 5.584-.968 8.482-1.504-.966-1.612-1.824-3.114-2.8-4.618-.302-.62-1.1-.562-9.656.322zm-8.268-14.39c3.182 5.834 2.226 5.88 6.014 5.478 2.04-.218 4.08-.43 6.228-.646-.86-1.61-1.694-3.13-2.578-4.51a1.384 1.384 0 00-.966-.644c-2.794.054-5.584.216-8.698.322zm4.188 7.732c.966 1.718 1.826 3.114 2.8 4.51a1.112 1.112 0 00.858.43c2.9-.322 5.692-.752 8.698-1.074-3.876-5.802-.826-4.69-12.356-3.866zM261.254 207.432c-.322-.966.43-1.504 1.182-1.718 10.914-4.02 22.086-3.256 24.16-1.182.934.934-.096 1.498-.75 1.29-7.802-2.484-16.836-.328-24.592 1.61zM43.046 187.674a17.344 17.344 0 11-17.504 17.4 17.486 17.486 0 0117.504-17.4zm-2.576 14.712c0-.108-3.544-7.088-5.37-10.846-1.718 1.61-3.222 3-4.94 4.51 3.544 2.254 10.202 6.336 10.31 6.336zM29.516 212.8c1.718 1.826 3.222 3.328 4.832 5.046 2.256-3.65 6.552-10.63 6.552-10.738-.3.31-7.596 3.8-11.384 5.692zm-.752-1.4c3.974-2.04 11.168-5.8 11.168-5.906-4.08-.216-8.16-.322-12.564-.538.432 2.262.86 4.194 1.396 6.444zm27.92 1.18c.646-2.146 1.29-4.08 1.934-6.12-4.4-.214-12.564-.538-12.672-.43 3.544 2.154 6.98 4.302 10.738 6.556zM44.658 189.6c-.216 4.4-.538 12.564-.43 12.564 2.148-3.436 4.296-6.872 6.658-10.63-2.148-.638-4.086-1.284-6.228-1.934zm-2.47 12.242c.108 0 .536-8.054.752-12.348-2.148.428-4.188.966-6.336 1.4 1.932 3.866 3.758 7.41 5.584 10.954zm13.53 12.242c-3.544-2.254-10.308-6.336-10.416-6.228 1.826 3.436 3.65 6.872 5.476 10.524 1.718-1.38 3.222-2.78 4.94-4.29zm-16.43-9.986c0-.108-6.442-4.4-9.986-6.658-.644 2.04-1.29 3.972-1.934 6.014 4.296.22 8.162.434 11.92.65zm18.148-5.156c-3.758 1.826-7.302 3.544-10.738 5.262 0 .108 7.84.538 12.028.752-.43-2.142-.86-4.074-1.29-6.008zm-8.16 20.19c-1.934-3.652-5.584-10.418-5.584-10.418-.108 3.76-.324 7.626-.43 11.706 2.04-.42 3.866-.854 6.014-1.282zm3.124-26.518a252.08 252.08 0 01-6.336 9.664c.106.108 6.872-3.33 10.524-5.154-1.514-1.504-2.802-3.008-4.188-4.51zm-11.062 27.704c.322-3.972.644-11.49.538-11.49-2.04 3.114-3.974 6.336-6.228 9.772 2.03.644 3.752 1.182 5.68 1.718zM326.758 162.974c1.612 0 3.116-.106 4.618 0 .86.108 3 2.578 3.652 3.114-1.4-.214-4.51-.75-4.726-.858-1.074-.644-2.148-1.396-3.544-2.256z">
   </path>
   <path fill="#b2c2f8"
      d="M222.058 158.68c-1.932.214-3.542.442-5.154.644-3.648.458-7.302.752-10.954 1.18-.43 0-1.074 0-1.288-.322-1.934-2.254-3.866-4.616-6.014-7.2 2.256-.322 12.038-1.656 14.82-2.148a2.5 2.5 0 012.684.966c1.704 2.166 3.758 4.41 5.906 6.88zM270.274 152.344a.3.3 0 01-.214.536c-1.458.172-7.498 1.112-13.746 1.612-1.766 0-.516.148-7.516-7.2a.3.3 0 01.214-.536c13.6-1.876 13.6-2.286 14.068-1.826 2.47 2.47 4.804 4.97 7.194 7.414zM231.938 148.692c4.958-.62 11.356-1.216 13.852-1.61a2.8 2.8 0 012.684.966c1.87 2.22 3.866 4.4 5.908 6.766-3.06.436-2.61.292-14.498 1.718a2.554 2.554 0 01-1.288-.322c-2.256-2.256-4.4-4.618-6.658-6.98zM237.63 156.854c-3.652.43-7.2.64-10.74 1.4a5.618 5.618 0 01-6.442-2.8 57.6 57.6 0 00-3.76-4.51.412.412 0 01.216-.644c13.092-1.4 11.218-1.276 12.672-1.4.644 0 .968.426 1.4.858a70.478 70.478 0 016.654 7.096zM183.83 155.244c3.65-.538 5.696-.922 10.094-1.504 2.58-.342 3.646-1.348 4.938.858 2.094 3.576 3.228 3.714 4.834 6.122-6.236.692-9.108 1.174-12.886 1.504-1.64 0-1.8-.676-7.088-6.552a.23.23 0 01.108-.428z">
   </path>
</svg>